<svg width="96" height="96" xmlns="http://www.w3.org/2000/svg" xmlns:xlink="http://www.w3.org/1999/xlink" xml:space="preserve" overflow="hidden"><defs><clipPath id="clip0"><rect x="469" y="374" width="96" height="96"/></clipPath></defs><g clip-path="url(#clip0)" transform="translate(-469 -374)"><path d="M555.58 386.186C555.271 385.965 554.864 385.939 554.529 386.117L478.7 426.561C478.213 426.821 478.028 427.426 478.287 427.914 478.406 428.137 478.605 428.307 478.844 428.389L502.026 436.412 502.445 436.55 509.045 457.303C509.151 457.636 509.423 457.889 509.762 457.972 509.84 457.99 509.92 458 510 458 510.265 458 510.52 457.895 510.707 457.707L524.445 443.97 544.674 450.945C544.953 451.043 545.262 451.011 545.515 450.857 545.768 450.705 545.942 450.449 545.988 450.157L555.988 387.157C556.047 386.782 555.889 386.406 555.58 386.186ZM481.68 427.237 547.713 392.02C547.717 392.017 547.724 392.018 547.727 392.022 547.73 392.026 547.729 392.033 547.725 392.036L502.884 434.578 481.684 427.256C481.678 427.254 481.675 427.248 481.677 427.242 481.678 427.24 481.679 427.238 481.681 427.237ZM504.35 435.944 548.374 394.177C548.378 394.173 548.384 394.173 548.388 394.177 548.393 394.18 548.393 394.187 548.389 394.191L513.979 438.967C513.902 439.064 513.846 439.176 513.814 439.296L509.921 453.396C509.921 453.401 509.917 453.406 509.911 453.406 509.905 453.406 509.901 453.401 509.901 453.396ZM511.929 453.629 515.452 440.869 522.341 443.244 511.941 453.639C511.936 453.64 511.93 453.637 511.929 453.631 511.929 453.63 511.929 453.63 511.929 453.629ZM544.188 448.662 516.411 439.084 553.326 391.049C553.328 391.044 553.333 391.042 553.338 391.044 553.343 391.046 553.345 391.051 553.343 391.056L544.2 448.654C544.199 448.659 544.194 448.663 544.188 448.662 544.188 448.662 544.188 448.662 544.188 448.662Z" fill="#FFFFFF"/></g></svg>